<svg width="77" height="42" viewBox="0 0 77 42" fill="none" xmlns="http://www.w3.org/2000/svg">
<path d="M75.8198 37.7842L58.3643 28.263C62.5669 25.2114 64.8355 21.497 64.8278 17.6803C64.8278 7.93145 50.2868 0 32.4139 0C14.541 0 0 7.93145 0 17.6803C0 27.4292 14.541 35.3606 32.4139 35.3606C39.4111 35.3648 46.2209 34.1274 51.8155 31.8351L69.271 41.3563C70.1546 41.7871 71.3071 42.0171 72.4918 41.999C73.6765 41.9809 74.8035 41.7161 75.6416 41.259C76.4796 40.8019 76.965 40.1872 76.9982 39.541C77.0313 38.8948 76.6097 38.2662 75.8198 37.7842ZM9.26112 17.6803C9.26112 15.1826 10.619 12.7409 13.1631 10.6641C15.7071 8.58734 19.3231 6.96867 23.5537 6.01283C27.7843 5.05699 32.4396 4.80689 36.9308 5.29418C41.422 5.78146 45.5474 6.98424 48.7854 8.75041C52.0234 10.5166 54.2285 12.7668 55.1218 15.2166C56.0152 17.6663 55.5567 20.2055 53.8043 22.5132C52.0519 24.8208 49.0844 26.7931 45.2769 28.1808C41.4695 29.5685 36.9931 30.3091 32.4139 30.3091C26.2757 30.3051 20.3909 28.9733 16.0506 26.6058C11.7102 24.2383 9.26848 21.0285 9.26112 17.6803Z" fill="#4E9744"/>
</svg>
