<svg width="134" height="147" viewBox="0 0 134 147" fill="none" xmlns="http://www.w3.org/2000/svg">
<path d="M109.636 0H24.3636C17.9042 0.00607968 11.7113 2.22053 7.14373 6.15747C2.5762 10.0944 0.00705348 15.4323 0 21V126C0.00705348 131.568 2.5762 136.906 7.14373 140.843C11.7113 144.779 17.9042 146.994 24.3636 147H109.636C116.096 146.994 122.289 144.779 126.856 140.843C131.424 136.906 133.993 131.568 134 126V21C133.993 15.4323 131.424 10.0944 126.856 6.15747C122.289 2.22053 116.096 0.00607968 109.636 0ZM67 89.25H36.5455C34.93 89.25 33.3808 88.6969 32.2385 87.7123C31.0963 86.7277 30.4545 85.3924 30.4545 84C30.4545 82.6076 31.0963 81.2723 32.2385 80.2877C33.3808 79.3031 34.93 78.75 36.5455 78.75H67C68.6154 78.75 70.1647 79.3031 71.3069 80.2877C72.4492 81.2723 73.0909 82.6076 73.0909 84C73.0909 85.3924 72.4492 86.7277 71.3069 87.7123C70.1647 88.6969 68.6154 89.25 67 89.25ZM97.4545 63H36.5455C34.93 63 33.3808 62.4469 32.2385 61.4623C31.0963 60.4777 30.4545 59.1424 30.4545 57.75C30.4545 56.3576 31.0963 55.0223 32.2385 54.0377C33.3808 53.0531 34.93 52.5 36.5455 52.5H97.4545C99.07 52.5 100.619 53.0531 101.761 54.0377C102.904 55.0223 103.545 56.3576 103.545 57.75C103.545 59.1424 102.904 60.4777 101.761 61.4623C100.619 62.4469 99.07 63 97.4545 63ZM97.4545 36.75H36.5455C34.93 36.75 33.3808 36.1969 32.2385 35.2123C31.0963 34.2277 30.4545 32.8924 30.4545 31.5C30.4545 30.1076 31.0963 28.7723 32.2385 27.7877C33.3808 26.8031 34.93 26.25 36.5455 26.25H97.4545C99.07 26.25 100.619 26.8031 101.761 27.7877C102.904 28.7723 103.545 30.1076 103.545 31.5C103.545 32.8924 102.904 34.2277 101.761 35.2123C100.619 36.1969 99.07 36.75 97.4545 36.75Z" fill="#F6F6F6"/>
</svg>
