<svg width="134" height="147" viewBox="0 0 134 147" fill="none" xmlns="http://www.w3.org/2000/svg">
<path d="M91.6862 10.6903C85.418 3.79638 76.6632 0 67 0C57.2853 0 48.5014 3.77341 42.2622 10.6246C35.9554 17.5513 32.8825 26.9652 33.604 37.1304C35.0341 57.1853 50.0153 73.4996 67 73.4996C83.9847 73.4996 98.9401 57.1886 100.393 37.137C101.124 27.0636 98.0317 17.6694 91.6862 10.6903ZM123.691 146.999H10.3093C8.82519 147.019 7.35549 146.701 6.00708 146.069C4.65867 145.438 3.46546 144.508 2.51427 143.347C0.420581 140.798 -0.423338 137.316 0.201548 133.795C2.92013 118.433 11.4044 105.528 24.7396 96.4682C36.5867 88.4259 51.5936 83.9995 67 83.9995C82.4063 83.9995 97.4133 88.4292 109.26 96.4682C122.596 105.524 131.08 118.429 133.798 133.792C134.423 137.313 133.579 140.794 131.486 143.344C130.535 144.505 129.342 145.436 127.993 146.068C126.645 146.7 125.175 147.018 123.691 146.999Z" fill="#F6F6F6"/>
</svg>
